<mxfile host="app.diagrams.net" modified="2023-06-11T18:58:03.146Z" agent="Mozilla/5.0 (Windows NT 10.0; Win64; x64) AppleWebKit/537.36 (KHTML, like Gecko) Chrome/114.0.0.0 Safari/537.36" version="21.3.7" etag="OulbB_8-4wrLfiIG6zPo" type="github">
  <diagram name="PÃ¡gina-1" id="2C5tRCUQA-3prZefIuyH">
    <mxGraphModel>
      <root>
        <mxCell id="0" />
        <mxCell id="1" parent="0" />
      </root>
    </mxGraphModel>
  </diagram>
</mxfile>
